<?xml version="1.0" standalone="no"?>
<!DOCTYPE svg PUBLIC "-//W3C//DTD SVG 20010904//EN"
 "http://www.w3.org/TR/2001/REC-SVG-20010904/DTD/svg10.dtd">
<svg version="1.0" xmlns="http://www.w3.org/2000/svg"
 width="1024.000000pt" height="1024.000000pt" viewBox="0 0 1024.000000 1024.000000"
 preserveAspectRatio="xMidYMid meet">

<g transform="translate(0.000000,1024.000000) scale(0.100000,-0.100000)"
fill="#000000" stroke="none">
<path d="M6745 8481 c-289 -37 -546 -211 -740 -501 -96 -143 -169 -280 -211
-398 -29 -83 -35 -89 -76 -73 -13 5 -68 16 -123 26 -55 9 -101 18 -103 20 -2
1 7 19 19 39 24 41 20 75 -11 106 -47 47 -129 5 -153 -78 -14 -47 -30 -60 -56
-43 -12 8 -12 18 3 71 15 53 16 69 6 107 -14 48 -50 83 -86 83 -33 0 -81 -53
-89 -97 -3 -22 0 -65 9 -101 l14 -62 -23 0 c-19 0 -25 8 -34 45 -25 100 -114
144 -167 81 -29 -33 -30 -55 -3 -107 11 -23 18 -43 15 -46 -4 -4 -127 -30
-215 -46 -9 -1 -34 44 -72 132 -91 209 -190 360 -338 513 -143 148 -183 180
-306 241 -127 64 -230 87 -379 87 -204 -1 -368 -50 -571 -172 -209 -126 -392
-309 -554 -557 -105 -162 -162 -273 -216 -426 -69 -194 -88 -300 -89 -490 -1
-145 1 -165 22 -218 27 -66 97 -143 157 -172 34 -17 61 -20 180 -20 132 1 146
3 234 33 95 33 224 100 336 175 33 22 121 101 195 176 133 134 198 222 294
394 l33 58 39 -53 c76 -101 147 -222 138 -234 -5 -6 -35 -42 -68 -80 -32 -38
-91 -118 -131 -179 -161 -242 -246 -447 -297 -715 -33 -167 -32 -492 0 -665
64 -339 223 -632 494 -910 53 -55 117 -116 142 -135 25 -19 45 -38 46 -41 0
-4 -15 -12 -32 -20 -135 -54 -261 -206 -302 -365 -18 -70 -21 -197 -5 -264 18
-81 78 -188 140 -250 l58 -57 -95 -124 c-133 -174 -120 -166 -234 -158 -52 4
-190 8 -306 8 -192 1 -212 -1 -227 -17 -24 -26 -21 -72 7 -107 l24 -30 246 -3
246 -3 -53 -72 c-97 -132 -153 -221 -215 -341 -91 -176 -107 -230 -107 -356 0
-98 2 -109 30 -159 45 -82 151 -152 269 -177 74 -16 336 -18 441 -3 170 23
474 110 770 219 292 108 476 184 955 395 356 156 604 302 769 452 l59 53 434
6 c461 7 481 9 512 57 20 29 9 70 -24 87 -15 8 -131 9 -410 4 -215 -4 -390 -4
-390 0 0 4 17 33 39 64 76 113 163 317 196 462 9 41 19 81 21 88 2 9 19 4 56
-17 124 -69 359 -149 489 -167 120 -16 292 47 373 137 67 75 90 142 91 264 0
117 -14 156 -89 248 l-47 58 51 56 c132 145 163 312 86 468 -59 120 -161 194
-298 216 -34 6 -63 11 -65 12 -1 2 2 20 7 42 31 133 -10 276 -107 373 -56 56
-109 85 -190 102 l-50 11 -6 217 c-10 375 -61 583 -212 870 -77 144 -191 316
-260 390 l-59 64 18 31 c35 65 152 222 165 222 8 0 38 -40 67 -88 30 -49 82
-125 116 -170 75 -100 249 -274 343 -345 80 -59 230 -145 303 -172 146 -55
339 -64 439 -21 186 81 236 358 136 746 -54 210 -133 381 -275 592 -179 267
-469 523 -711 626 -158 68 -316 95 -452 78z m-2940 -166 c107 -31 188 -75 287
-154 159 -126 255 -253 389 -517 78 -152 87 -175 72 -181 -10 -3 -44 -17 -75
-29 -32 -13 -59 -24 -62 -24 -3 0 -10 26 -17 58 -23 107 -97 227 -215 348 -51
52 -73 66 -159 100 l-100 40 0 60 c0 58 -1 59 -29 62 -51 6 -76 -7 -106 -55
-16 -25 -42 -60 -58 -78 -55 -59 -85 -114 -84 -149 1 -22 -6 -40 -18 -51 -11
-10 -20 -26 -20 -35 0 -10 -10 -30 -22 -46 -13 -15 -17 -25 -10 -20 24 15 11
-11 -21 -42 -18 -18 -37 -29 -42 -25 -4 5 -5 3 -2 -3 4 -7 0 -15 -9 -18 -10
-4 -14 -12 -10 -22 9 -22 -3 -56 -16 -48 -7 4 -8 -2 -3 -17 7 -21 6 -22 -7
-11 -13 10 -19 7 -40 -20 -14 -18 -31 -45 -39 -59 -39 -73 -243 -280 -368
-375 -96 -72 -169 -110 -291 -152 -111 -39 -165 -50 -293 -58 -92 -6 -107 -5
-113 9 -13 36 36 332 77 457 98 304 366 676 621 865 277 205 526 265 783 190z
m3215 0 c274 -74 605 -344 804 -655 108 -169 199 -391 230 -560 18 -95 35
-278 28 -297 -3 -9 -25 -13 -63 -13 -33 0 -59 -4 -59 -10 0 -5 -8 -10 -17 -10
-13 0 -14 3 -6 8 8 5 -15 13 -55 20 -74 12 -262 84 -338 128 -27 15 -84 57
-127 91 -43 35 -83 60 -89 57 -6 -4 -8 -3 -5 3 8 13 -17 36 -27 25 -4 -4 -7
-2 -5 3 3 13 -172 191 -184 187 -4 -1 -6 2 -2 8 4 6 -10 32 -31 58 -52 65 -58
71 -50 47 6 -20 6 -20 -9 0 -15 19 -16 19 -14 -10 2 -17 2 -49 1 -72 -2 -35
-6 -43 -21 -43 -11 0 -22 6 -25 13 -3 6 -3 -1 0 -18 5 -27 3 -26 -20 13 -14
24 -23 49 -19 55 3 5 2 7 -4 4 -11 -7 -56 80 -48 94 4 5 2 9 -3 9 -14 0 -35
57 -26 71 4 7 3 10 -2 6 -11 -6 -28 36 -73 173 -38 120 -51 179 -41 185 9 6
83 -112 83 -132 0 -7 4 -13 9 -13 5 0 7 -4 4 -9 -3 -5 5 -25 19 -45 14 -20 25
-40 25 -44 0 -4 19 -27 41 -52 23 -25 34 -34 25 -20 -9 14 -24 43 -35 65 -11
22 -32 58 -46 80 -15 22 -45 73 -67 115 -22 41 -48 86 -58 100 -10 14 -32 53
-49 87 -34 68 -58 82 -108 66 -25 -9 -28 -15 -31 -60 l-3 -50 -82 -43 c-67
-35 -97 -59 -165 -134 -107 -116 -173 -216 -213 -319 -17 -45 -33 -84 -34 -86
-2 -2 -33 13 -69 33 l-65 36 35 83 c20 45 42 99 50 120 24 68 122 230 189 313
140 176 328 309 493 349 97 23 243 19 352 -10z m-3270 -373 c0 -11 -35 -52
-44 -52 -4 0 3 13 16 29 25 33 28 35 28 23z m-92 -288 c-6 -21 -13 -32 -15
-23 -4 17 15 75 22 67 2 -2 -1 -22 -7 -44z m398 -89 c40 -42 90 -104 110 -138
35 -60 69 -94 89 -89 15 3 -19 -22 -109 -81 -44 -29 -104 -75 -135 -104 l-56
-52 -27 32 c-37 43 -35 53 5 28 l33 -20 -5 37 c-6 38 -39 102 -53 102 -4 0 -8
5 -8 11 0 6 -9 22 -20 36 -25 32 -27 130 -5 194 22 63 64 119 88 119 12 0 50
-31 93 -75z m2437 37 c37 -53 66 -147 67 -213 0 -41 -7 -71 -29 -115 -30 -61
-32 -96 -4 -69 25 25 26 17 2 -22 -12 -21 -29 -50 -38 -64 l-15 -27 -70 62
c-38 33 -80 71 -94 83 -13 12 -33 25 -43 28 -11 4 -19 10 -19 15 0 5 -9 12
-20 15 -25 8 -19 38 16 75 12 14 30 43 39 65 10 23 52 76 98 123 45 45 82 82
83 82 1 0 13 -17 27 -38z m-2973 -62 c0 -5 -4 -10 -10 -10 -5 0 -10 5 -10 10
0 6 5 10 10 10 6 0 10 -4 10 -10z m81 -38 c-10 -27 -23 -57 -30 -68 -12 -19
-12 -19 -6 1 4 11 8 26 8 33 0 6 4 12 8 12 4 0 10 16 13 35 4 19 11 35 16 35
4 0 0 -22 -9 -48z m148 -68 c-6 -16 -13 -24 -16 -17 -5 13 16 58 23 50 3 -2
-1 -17 -7 -33z m2905 -73 c-15 -23 -28 -41 -30 -41 -8 0 11 36 28 54 10 11 19
31 19 45 2 23 2 23 6 4 2 -13 -7 -38 -23 -62z m-1175 53 c199 -29 335 -71 513
-159 208 -104 338 -197 495 -357 204 -207 386 -553 453 -858 27 -120 43 -333
37 -484 l-5 -130 -51 -17 c-63 -20 -121 -58 -178 -117 -66 -67 -99 -120 -173
-276 -65 -137 -93 -205 -160 -391 -18 -49 -36 -94 -40 -99 -5 -4 -33 11 -64
34 -76 56 -243 135 -341 162 -66 18 -109 22 -245 22 -154 1 -171 -1 -258 -27
-296 -91 -479 -219 -730 -514 -52 -62 -100 -113 -105 -113 -5 0 -33 22 -62 48
-52 48 -145 100 -215 121 -19 5 -67 14 -107 20 -70 9 -74 11 -139 73 -176 166
-325 321 -382 397 -195 259 -296 633 -279 1031 13 291 73 489 232 765 183 318
428 547 760 713 159 79 392 148 555 165 103 11 391 6 489 -9z m-1929 -24 c0
-5 -2 -10 -4 -10 -3 0 -8 5 -11 10 -3 6 -1 10 4 10 6 0 11 -4 11 -10z m-17
-35 c-3 -9 -8 -14 -10 -11 -3 3 -2 9 2 15 9 16 15 13 8 -4z m-81 -137 c-8 -8
-9 -4 -5 13 4 13 8 18 11 10 2 -7 -1 -18 -6 -23z m3529 9 c-10 -9 -11 -8 -5 6
3 10 9 15 12 12 3 -3 0 -11 -7 -18z m-3559 -59 c-7 -7 -12 -8 -12 -2 0 14 12
26 19 19 2 -3 -1 -11 -7 -17z m-42 -59 c-7 -11 -14 -18 -17 -15 -8 8 5 36 17
36 7 0 7 -6 0 -21z m-20 -34 c0 -2 -10 -10 -22 -16 -21 -11 -22 -11 -9 4 13
16 31 23 31 12z m-70 -80 c-13 -14 -26 -23 -28 -20 -5 5 36 45 46 45 3 0 -5
-11 -18 -25z m-30 -39 c0 -2 -7 -7 -16 -10 -8 -3 -12 -2 -9 4 6 10 25 14 25 6z
m3980 -46 c0 -5 -2 -10 -4 -10 -3 0 -8 5 -11 10 -3 6 -1 10 4 10 6 0 11 -4 11
-10z m95 -88 c-3 -3 -11 0 -18 7 -9 10 -8 11 6 5 10 -3 15 -9 12 -12z m-4221
-3 c-10 -16 -224 -155 -254 -164 -22 -7 -23 -6 -11 8 7 9 17 14 22 12 4 -3 18
4 31 17 12 12 28 23 35 24 19 3 43 30 35 39 -4 5 -2 5 4 2 6 -3 21 5 32 18 14
16 32 25 52 25 22 0 28 4 24 15 -4 10 0 15 16 15 13 0 19 -4 14 -11z m4243
-14 c0 -8 -4 -12 -9 -9 -5 3 -6 10 -3 15 9 13 12 11 12 -6z m713 -35 c-8 -5
-10 -10 -4 -10 25 0 -17 -135 -47 -150 -14 -8 -17 -6 -16 10 1 12 7 18 14 16
19 -8 25 9 25 72 1 53 9 72 33 72 6 0 3 -5 -5 -10z m-500 -96 c0 -8 -19 -13
-24 -6 -3 5 1 9 9 9 8 0 15 -2 15 -3z m-5177 -34 c9 -11 13 -20 8 -20 -4 0
-16 9 -26 20 -10 11 -14 20 -9 20 5 0 17 -9 27 -20z m407 -10 c-8 -5 -19 -10
-25 -10 -5 0 -3 5 5 10 8 5 20 10 25 10 6 0 3 -5 -5 -10z m-50 -15 c0 -7 -81
-27 -87 -21 -3 3 10 9 28 15 39 11 59 13 59 6z m-107 -32 c-7 -2 -19 -2 -25 0
-7 3 -2 5 12 5 14 0 19 -2 13 -5z m4560 -1316 c56 -23 88 -59 113 -122 16 -43
16 -49 0 -106 -23 -83 -56 -131 -118 -173 -29 -19 -80 -57 -113 -85 -33 -28
-94 -73 -135 -100 -221 -148 -348 -236 -345 -240 3 -2 11 2 20 9 12 10 15 10
15 -1 0 -11 2 -11 10 1 9 13 11 13 20 0 5 -8 10 -10 10 -4 0 12 130 117 179
144 14 8 28 17 31 20 3 3 17 13 32 23 51 32 39 -2 -15 -45 -62 -50 -199 -169
-274 -240 -52 -48 -52 -48 -64 -26 -6 13 -29 42 -50 65 -22 24 -39 46 -39 50
0 5 27 73 61 153 33 80 71 173 85 208 66 172 163 333 241 402 112 98 214 119
336 67z m67 -411 c0 -2 -7 -7 -16 -10 -8 -3 -12 -2 -9 4 6 10 25 14 25 6z
m304 -115 c104 -46 152 -127 144 -244 -5 -74 -47 -167 -87 -196 -26 -19 -28
-19 -27 -3 0 10 15 36 32 57 55 72 46 78 -18 13 -56 -56 -73 -67 -153 -96 -50
-18 -137 -39 -195 -47 -58 -9 -112 -18 -120 -21 -8 -3 -95 -9 -193 -14 -98 -5
-184 -13 -190 -19 -8 -6 -18 -5 -32 5 -10 8 -27 12 -36 9 -10 -3 -20 -2 -23 3
-7 12 238 227 374 329 58 44 146 110 195 148 122 93 155 107 228 100 33 -2 78
-13 101 -24z m-1763 -141 c215 -25 453 -144 574 -287 l36 -43 -48 6 c-54 7
-197 66 -228 94 -62 56 -220 95 -385 95 -146 0 -224 -17 -217 -47 3 -10 1 -16
-4 -12 -5 3 -9 0 -9 -6 0 -6 -4 -8 -10 -5 -18 11 -11 -8 12 -32 12 -13 30 -23
40 -23 10 0 17 -3 17 -7 -1 -5 -1 -17 0 -28 1 -17 3 -18 11 -5 7 11 10 5 10
-22 0 -37 1 -38 35 -38 34 0 35 -1 35 -40 0 -33 -3 -40 -20 -40 -13 0 -20 -7
-20 -20 0 -11 -4 -20 -10 -20 -5 0 -10 5 -10 10 0 6 -4 10 -10 10 -5 0 -10
-13 -10 -30 0 -16 5 -30 10 -30 6 0 10 -9 10 -20 0 -11 -4 -20 -10 -20 -5 0
-10 -7 -10 -15 0 -8 -6 -25 -12 -36 -10 -17 -10 -23 0 -26 14 -6 16 -43 2 -43
-5 0 -10 -18 -10 -40 0 -22 -4 -40 -10 -40 -6 0 -10 -27 -10 -60 0 -53 2 -60
20 -60 13 0 20 -7 20 -20 0 -14 -7 -20 -21 -20 -19 0 -21 -5 -17 -40 3 -36 1
-40 -19 -40 -18 0 -23 -6 -23 -25 0 -19 4 -23 17 -18 17 7 17 6 0 -20 -14 -21
-17 -49 -17 -142 0 -108 -1 -115 -20 -115 -17 0 -20 -7 -20 -40 0 -33 -3 -40
-20 -40 -18 0 -20 -7 -20 -60 0 -53 2 -60 20 -60 13 0 20 -7 20 -20 0 -13 7
-20 20 -20 18 0 20 -7 20 -60 l0 -60 40 0 c23 0 40 -5 40 -11 0 -7 10 -9 25
-7 13 3 22 1 19 -3 -8 -13 10 -11 24 3 7 7 12 8 12 2 0 -15 -64 -48 -141 -73
-37 -12 -75 -31 -84 -41 -22 -25 -31 -25 -38 -2 -2 9 -51 76 -109 147 -57 72
-127 164 -156 205 -109 157 -238 315 -265 324 -24 9 -30 6 -56 -24 -42 -51
-50 -33 163 -350 152 -226 204 -301 243 -353 19 -26 34 -49 32 -52 -2 -2 -39
-20 -82 -39 -77 -36 -112 -40 -82 -10 8 9 15 31 15 50 0 27 4 34 20 34 31 0
23 27 -10 34 -21 4 -30 11 -30 26 0 11 -4 20 -10 20 -5 0 -10 9 -10 20 0 17
-7 20 -40 20 -33 0 -40 -3 -40 -20 0 -13 -7 -20 -20 -20 -18 0 -20 -7 -20 -80
0 -64 3 -80 15 -80 8 0 15 -7 15 -15 0 -9 -7 -18 -15 -21 -17 -7 -21 -44 -5
-44 6 0 10 -4 10 -9 0 -8 -20 -19 -50 -26 -13 -4 -111 -49 -157 -73 -28 -14
-54 -24 -56 -22 -6 6 -192 278 -323 472 -56 83 -109 157 -117 165 -13 14 -20
12 -62 -17 -39 -27 -46 -36 -41 -55 7 -26 91 -174 158 -277 23 -37 72 -115
108 -174 36 -59 80 -130 98 -157 19 -27 32 -50 30 -51 -2 -2 -25 -11 -53 -21
-131 -46 -191 -65 -205 -65 -9 0 -36 -10 -60 -21 -88 -43 -96 -42 -133 4 -19
23 -49 64 -68 91 -19 26 -44 62 -56 80 -13 17 -63 90 -111 161 -49 72 -96 131
-105 133 -18 4 -73 -34 -81 -55 -9 -21 30 -113 77 -184 23 -35 55 -85 70 -111
15 -26 54 -85 87 -130 l60 -83 -28 -12 c-15 -6 -63 -19 -107 -28 -44 -9 -84
-20 -90 -24 -5 -5 -32 -11 -60 -14 -27 -3 -88 -12 -135 -21 -47 -9 -113 -16
-147 -16 -64 0 -78 -11 -51 -38 7 -7 8 -12 2 -12 -32 0 -74 85 -74 148 0 183
215 543 570 957 33 39 72 87 87 108 17 25 32 37 42 33 57 -17 126 -53 126 -65
0 -12 27 -15 137 -19 129 -4 140 -2 190 21 82 37 160 91 201 138 34 38 47 61
77 134 30 70 40 310 16 367 -38 92 -55 168 -37 168 4 0 20 17 34 38 63 96 321
363 407 422 134 91 317 162 465 179 99 12 101 12 196 1z m339 -330 c-8 -5 -31
-9 -50 -9 -31 1 -32 2 -10 8 14 4 36 8 50 9 20 1 22 0 10 -8z m1420 -10 c0
-17 -138 -63 -237 -78 -41 -7 -50 -6 -46 5 3 7 9 10 14 7 5 -3 9 -1 9 4 0 12
163 58 253 71 4 1 7 -4 7 -9z m-444 -109 c-3 -5 -36 -14 -73 -20 -38 -7 -79
-14 -93 -17 -24 -5 -25 -5 -4 10 11 8 51 17 90 21 38 4 71 9 73 11 8 7 12 4 7
-5z m-769 -10 c171 -25 288 -135 323 -305 23 -110 -18 -267 -91 -350 -42 -48
-131 -97 -212 -117 -120 -30 -265 17 -365 118 -64 64 -84 100 -108 194 -40
158 49 345 200 419 92 46 152 55 253 41z m-1984 -44 c112 -51 198 -168 218
-298 10 -67 9 -82 -11 -157 -13 -48 -36 -103 -54 -129 -62 -90 -222 -173 -332
-173 -56 0 -149 31 -215 72 -195 120 -235 423 -78 593 86 93 174 126 319 122
77 -3 106 -9 153 -30z m1527 29 c0 -2 -8 -10 -17 -17 -16 -13 -17 -12 -4 4 13
16 21 21 21 13z m900 -5 c0 -13 -26 -32 -33 -24 -14 13 -6 33 13 33 11 0 20
-4 20 -9z m40 -16 c0 -10 -10 -15 -26 -15 -22 0 -25 2 -14 15 7 8 19 15 26 15
8 0 14 -7 14 -15z m58 8 c-10 -2 -26 -2 -35 0 -10 3 -2 5 17 5 19 0 27 -2 18
-5z m690 -63 c57 -41 93 -106 99 -180 5 -53 3 -64 -22 -101 -18 -28 -30 -38
-37 -31 -7 7 -3 19 11 39 24 33 38 83 23 83 -6 0 -13 -14 -17 -30 -10 -43 -87
-117 -138 -131 -83 -22 -220 16 -467 131 -80 37 -158 71 -174 74 -18 5 -25 11
-20 16 13 13 179 41 198 34 9 -3 16 -2 16 4 0 11 170 53 333 82 58 10 114 23
124 29 25 15 25 14 71 -19z m-1767 -29 c-12 -16 -21 -33 -21 -39 0 -5 -7 -16
-17 -23 -15 -13 -15 -12 -3 11 17 34 50 80 56 80 3 0 -4 -13 -15 -29z m-60
-137 c-9 -28 -9 -29 -10 -3 -1 14 2 29 6 32 11 12 13 2 4 -29z m1121 -84 c6 0
9 -2 6 -5 -15 -15 -38 10 -37 39 l1 31 9 -32 c5 -18 15 -33 21 -33z m-1135 13
c-3 -10 -5 -4 -5 12 0 17 2 24 5 18 2 -7 2 -21 0 -30z m1883 -97 c0 -3 -4 -8
-10 -11 -5 -3 -10 -1 -10 4 0 6 5 11 10 11 6 0 10 -2 10 -4z m-36 -47 c-3 -6
-14 -9 -24 -6 -11 3 -27 -1 -37 -8 -24 -17 -128 -31 -119 -16 4 6 17 11 29 12
12 0 38 7 57 14 44 17 104 19 94 4z m-1814 -720 c-33 -22 -90 -49 -90 -42 1 5
20 18 43 30 44 22 73 30 47 12z m-735 -359 c-3 -5 -12 -10 -18 -10 -7 0 -6 4
3 10 19 12 23 12 15 0z"/>
<path d="M3586 7704 c-4 -9 -4 -19 -1 -22 2 -3 7 3 11 12 4 9 4 19 1 22 -2 3
-7 -3 -11 -12z"/>
<path d="M6967 7479 c4 -13 8 -18 11 -10 2 7 -1 18 -6 23 -8 8 -9 4 -5 -13z"/>
<path d="M4242 6659 c-109 -21 -169 -98 -126 -164 l15 -23 47 21 c30 14 77 23
132 27 81 5 85 6 98 33 12 24 11 31 -2 52 -33 50 -89 68 -164 54z"/>
<path d="M6073 6651 c-43 -20 -63 -45 -63 -79 0 -36 28 -47 114 -47 67 0 88
-4 123 -24 35 -20 45 -22 58 -11 34 28 9 111 -45 150 -44 32 -132 37 -187 11z"/>
<path d="M4193 6265 c-127 -35 -211 -105 -266 -223 -28 -60 -31 -77 -31 -167
-1 -94 1 -105 33 -173 43 -92 134 -180 220 -213 119 -46 260 -33 363 32 202
129 252 368 118 573 -26 39 -62 83 -81 97 -106 81 -233 107 -356 74z m108 -96
c47 -16 76 -45 95 -96 23 -60 8 -109 -48 -157 -68 -58 -150 -48 -208 27 -37
47 -44 91 -22 139 22 49 44 71 87 86 40 14 56 14 96 1z m200 -338 c35 -35 37
-70 7 -98 -38 -35 -62 -37 -97 -7 -41 34 -43 83 -5 113 36 28 60 26 95 -8z"/>
<path d="M6050 6266 c-121 -34 -222 -115 -275 -221 -28 -56 -30 -67 -30 -175
0 -107 2 -119 29 -175 35 -70 117 -155 184 -189 166 -83 338 -52 466 84 88 94
111 153 111 285 0 86 -4 108 -26 155 -31 67 -116 161 -176 197 -83 48 -194 64
-283 39z m81 -97 c98 -33 139 -140 84 -222 -65 -94 -184 -89 -252 12 -48 70
-19 166 60 201 49 23 62 24 108 9z m201 -336 c36 -34 36 -72 2 -107 -35 -35
-66 -33 -98 5 -31 37 -33 67 -5 103 27 34 65 34 101 -1z"/>
<path d="M5070 5603 c-98 -18 -71 -169 39 -219 22 -11 41 -24 41 -30 0 -18
-43 -75 -72 -97 -37 -28 -106 -27 -145 1 -31 22 -58 68 -68 115 -5 23 -10 27
-39 27 -19 0 -40 -8 -49 -18 -21 -23 -22 -83 -3 -120 23 -45 108 -117 160
-137 43 -17 55 -17 109 -6 75 16 108 32 139 69 l23 29 46 -42 c133 -123 351
-52 416 136 13 39 13 45 -5 68 -13 18 -30 27 -55 29 -33 3 -37 0 -42 -25 -10
-47 -46 -111 -73 -129 -32 -21 -123 -21 -153 0 -12 8 -34 34 -50 57 l-28 42
42 27 c80 50 138 141 116 181 -20 38 -69 49 -201 48 -68 -1 -134 -4 -148 -6z"/>
<path d="M3802 4752 c7 -17 14 -29 17 -27 2 3 10 0 18 -7 30 -24 21 0 -12 32
l-35 34 12 -32z"/>
<path d="M3854 4652 c1 -15 8 -38 15 -50 10 -19 15 -21 27 -11 13 10 12 15 -3
33 -16 19 -15 19 7 -1 23 -21 23 -23 7 -41 -17 -18 -17 -20 5 -34 13 -9 37
-29 53 -45 17 -16 36 -28 43 -25 7 2 12 -1 12 -7 0 -6 5 -11 10 -11 16 0 12
21 -6 35 -13 9 -9 10 20 7 20 -2 36 -8 36 -13 0 -5 9 -9 20 -9 11 0 20 -4 20
-10 0 -5 9 -10 20 -10 11 0 20 -4 20 -10 0 -5 15 -10 33 -9 17 0 26 3 19 6 -6
2 -10 8 -7 13 3 5 -26 26 -64 48 -38 22 -105 67 -149 100 -66 49 -82 58 -98
49 -17 -9 -18 -9 -5 6 12 15 11 17 -13 17 -22 0 -25 -4 -22 -28z"/>
<path d="M4290 4410 c-9 -6 -10 -10 -3 -10 6 0 15 5 18 10 8 12 4 12 -15 0z"/>
<path d="M4368 4273 c6 -2 18 -2 25 0 6 3 1 5 -13 5 -14 0 -19 -2 -12 -5z"/>
<path d="M3014 6768 l-19 -23 23 19 c21 18 27 26 19 26 -2 0 -12 -10 -23 -22z"/>
<path d="M5411 4395 c-35 -19 -74 -43 -85 -53 -12 -10 -32 -24 -46 -31 -14 -7
-42 -27 -64 -45 l-38 -33 26 -52 c66 -129 159 -241 202 -241 11 0 30 9 42 20
17 16 20 27 15 53 -12 64 -33 108 -61 132 -36 30 -62 82 -62 123 0 35 65 105
118 128 18 8 30 19 27 24 -8 12 1 15 -74 -25z"/>
<path d="M5596 4201 c-4 -7 -5 -15 -2 -18 9 -9 19 4 14 18 -4 11 -6 11 -12 0z"/>
<path d="M4946 4010 c-25 -27 -46 -55 -46 -63 0 -8 13 -29 30 -48 16 -19 61
-76 100 -126 79 -104 108 -128 142 -118 34 11 53 34 39 48 -6 6 -11 19 -11 28
0 29 -166 306 -192 320 -12 6 -28 -4 -62 -41z"/>
<path d="M5460 3485 c0 -19 5 -35 10 -35 6 0 10 16 10 35 0 19 -4 35 -10 35
-5 0 -10 -16 -10 -35z"/>
<path d="M5165 2670 c-3 -5 -2 -10 4 -10 5 0 13 5 16 10 3 6 2 10 -4 10 -5 0
-13 -4 -16 -10z"/>
<path d="M4930 2545 c0 -9 6 -12 15 -9 8 4 15 10 15 15 0 5 -7 9 -15 9 -8 0
-15 -7 -15 -15z"/>
<path d="M4403 2487 c-13 -5 -23 -18 -23 -29 0 -10 -4 -18 -10 -18 -5 0 -10
-9 -10 -20 0 -17 -7 -20 -40 -20 l-40 0 0 -40 0 -40 56 0 c61 0 84 14 84 52 0
13 5 29 10 34 15 15 19 82 6 87 -6 2 -21 0 -33 -6z"/>
<path d="M4320 2455 c0 -8 9 -15 20 -15 11 0 20 7 20 15 0 8 -9 15 -20 15 -11
0 -20 -7 -20 -15z"/>
<path d="M4338 2273 c6 -2 18 -2 25 0 6 3 1 5 -13 5 -14 0 -19 -2 -12 -5z"/>
<path d="M3760 2229 c0 -35 17 -69 34 -69 3 0 6 18 6 40 0 22 -4 40 -10 40 -5
0 -10 7 -10 15 0 8 -4 15 -10 15 -5 0 -10 -18 -10 -41z"/>
<path d="M3840 2175 c0 -8 9 -15 20 -15 11 0 20 7 20 15 0 8 -9 15 -20 15 -11
0 -20 -7 -20 -15z"/>
<path d="M6308 3443 c12 -2 30 -2 40 0 9 3 -1 5 -23 4 -22 0 -30 -2 -17 -4z"/>
<path d="M3936 3489 c3 -6 8 -8 11 -5 3 3 15 0 27 -6 16 -8 18 -8 10 1 -14 15
-57 24 -48 10z"/>
<path d="M4010 3450 c8 -5 22 -10 30 -10 13 0 13 1 0 10 -8 5 -22 10 -30 10
-13 0 -13 -1 0 -10z"/>
<path d="M7098 3963 c7 -3 16 -2 19 1 4 3 -2 6 -13 5 -11 0 -14 -3 -6 -6z"/>
<path d="M7568 3024 c-24 -13 -28 -21 -28 -59 0 -58 32 -85 102 -85 43 0 54 4
84 34 40 40 43 68 9 101 -20 21 -34 25 -82 25 -32 -1 -70 -8 -85 -16z"/>
<path d="M2690 3020 c-67 -16 -89 -76 -46 -127 22 -25 31 -28 84 -28 95 1 149
51 122 114 -18 44 -79 60 -160 41z"/>
</g>
</svg>
