<svg width="400" height="118" viewBox="0 0 400 118" fill="none" xmlns="http://www.w3.org/2000/svg">
<path d="M194.565 82.0183C197.712 74.8943 200.857 67.7657 204.002 60.6322C204.797 58.8275 205.524 56.9894 206.434 55.244C207.073 54.0211 206.821 53.3442 205.736 52.5511C201.377 49.3358 197.095 46.0137 192.777 42.7438C191.913 42.1828 191.203 41.4158 190.711 40.5117C190.425 39.9502 190.353 39.3045 190.506 38.6936C190.659 38.0827 191.028 37.5477 191.544 37.1871C193.235 35.6745 194.898 34.1216 196.504 32.521C198.404 30.6213 198.204 29.4173 195.817 28.1207C193.906 27.2029 191.898 26.5002 189.832 26.0261C179.726 23.1623 169.608 20.3389 159.506 17.202L188.008 18.152L188.174 17.7766L158.031 0.360894L158.188 0L235.486 21.2484C235.132 22.1721 234.342 22.4953 233.729 22.9726C228.18 27.2849 222.665 31.6469 217.015 35.8215C215.376 37.0302 215.526 37.7214 216.723 39.0939C219.889 42.7438 222.863 46.5574 225.986 50.2547C226.772 51.1832 226.755 51.7128 225.862 52.563C215.515 62.4083 205.19 72.2766 194.888 82.1679L194.565 82.0183Z" fill="#141746"/>
<path d="M251.387 96.8644C250.916 97.9086 250.101 98.759 249.077 99.2727C248.053 99.7865 246.884 99.9322 245.765 99.6855C239.666 98.7857 233.463 98.8489 227.384 99.8731C226.526 100.188 225.828 100.828 225.439 101.654C225.05 102.48 225.003 103.427 225.308 104.288C225.752 105.028 226.496 104.687 227.099 104.687C235.158 104.687 243.219 104.687 251.275 104.577C252.938 104.556 253.722 104.912 253.484 106.715C253.273 108.308 253.304 109.93 253.135 111.528C252.715 115.484 252.351 116.04 248.556 116.8C240.081 118.1 231.443 117.884 223.045 116.161C223.759 114.911 224.875 113.939 226.212 113.403C227.548 112.867 229.027 112.799 230.407 113.209C235.907 114.157 241.531 114.12 247.017 113.1C247.449 112.956 247.847 112.725 248.187 112.421C248.526 112.117 248.799 111.747 248.989 111.333C249.18 110.919 249.283 110.471 249.292 110.015C249.302 109.56 249.218 109.107 249.045 108.686C248.596 107.999 247.839 108.313 247.226 108.317C239.314 108.377 231.4 108.386 223.491 108.598C221.382 108.655 220.878 107.937 220.952 106.007C221.038 103.87 221.156 101.771 221.451 99.6643C221.485 98.8298 221.821 98.036 222.396 97.4303C222.972 96.8246 223.747 96.448 224.579 96.3705C231.423 95.0625 238.431 94.8471 245.342 95.7319C247.393 95.8846 249.42 96.2643 251.387 96.8644Z" fill="#F37D20"/>
<path d="M67.7082 115.444C58.4253 118.156 48.5872 118.345 39.2067 115.992C38.6071 115.898 38.0588 115.598 37.6552 115.145C37.2515 114.692 37.0176 114.113 36.9931 113.506C36.0025 108.614 36.0462 103.568 37.1214 98.693C37.3589 97.7716 37.5061 96.9951 38.7459 96.7007C48.1912 94.4945 58.0103 94.4272 67.4849 96.5036C65.4162 98.4674 63.9222 100.222 60.6421 99.5907C54.7937 98.4745 48.7801 98.5504 42.9618 99.8139C42.1808 100.189 41.5402 100.805 41.1335 101.57C40.7267 102.335 40.575 103.21 40.7006 104.067C41.0022 104.865 41.684 104.542 42.2017 104.542C46.0851 104.57 49.9708 104.627 53.8399 104.523C55.4027 104.483 56.0369 104.796 55.9918 106.539C55.9538 108.118 55.6616 108.717 53.9396 108.652C50.2083 108.512 46.4675 108.56 42.7314 108.652C42.0735 108.669 40.6698 107.871 40.76 109.417C40.8289 110.621 40.3919 112.25 42.4963 112.623C48.6043 113.919 54.9038 114.035 61.0554 112.965C63.9554 112.378 65.5421 113.72 67.7082 115.444Z" fill="#141746"/>
<path d="M141.324 106.636C141.324 109.933 141.234 113.233 141.36 116.527C141.436 118.51 140.104 117.906 139.17 117.897C138.237 117.887 136.89 118.548 136.959 116.548C137.075 113.181 136.945 109.807 137.014 106.437C137.04 105.25 136.664 104.865 135.455 104.661C128.493 103.571 121.399 103.641 114.459 104.87C113.151 105.081 112.676 105.563 112.73 106.95C112.852 110.023 112.657 113.11 112.811 116.18C112.897 117.928 111.956 117.923 110.799 117.785C109.811 117.669 108.365 118.469 108.391 116.337C108.472 109.596 108.472 102.854 108.391 96.112C108.37 94.1624 109.647 94.7204 110.612 94.718C111.576 94.7156 112.873 94.1506 112.83 96.1097C112.802 97.5654 112.087 99.6053 113.343 100.36C114.336 100.959 116.151 100.099 117.618 100.023C123.247 99.5781 128.904 99.6578 134.517 100.261C136.261 100.498 137.403 100.377 136.973 98.1898C136.944 97.8977 136.944 97.6034 136.973 97.3112C136.958 96.8496 137.068 96.3924 137.29 95.9877C137.513 95.5829 137.84 95.2455 138.238 95.0105C138.635 94.7755 139.089 94.6515 139.551 94.6519C140.013 94.6523 140.466 94.7769 140.864 95.0125C141.631 95.364 141.317 96.0123 141.324 96.53C141.341 99.8949 141.324 103.264 141.324 106.636Z" fill="#141746"/>
<path d="M227.976 0.191946C228.615 0.360546 229.463 0.571969 230.304 0.80706C235.786 2.34109 241.272 3.86075 246.742 5.43752C247.455 5.64174 248.493 5.5754 248.642 6.606C248.78 7.49412 247.911 7.79318 247.362 8.23249C244.787 10.2818 242.158 12.2695 239.617 14.352C239.162 14.7659 238.602 15.0481 237.999 15.1686C237.396 15.2891 236.771 15.2431 236.192 15.0358C230.304 13.3356 224.39 11.7233 218.49 10.0491C217.818 9.85916 216.965 9.77837 216.74 8.92587C216.502 8.0235 217.272 7.64599 217.825 7.2043C220.4 5.1526 222.993 3.12459 225.573 1.08476C225.894 0.783403 226.272 0.549343 226.684 0.396017C227.097 0.242692 227.536 0.173245 227.976 0.191946Z" fill="#141746"/>
<path d="M103.273 96.9172C102.522 98.103 101.411 99.0165 100.102 99.5231C98.793 100.03 97.3558 100.103 96.0024 99.731C90.4307 98.7489 84.7236 98.8294 79.1818 99.9684C78.6061 100.002 78.064 100.251 77.6642 100.667C77.2644 101.083 77.0362 101.634 77.0252 102.21C76.6999 104.897 76.6371 107.609 76.8376 110.308C76.9207 112.241 77.8541 112.856 79.6212 113.086C85.4145 114.043 91.3255 114.043 97.1188 113.086C100.109 112.49 101.674 114.15 103.866 115.644C97.1884 117.583 90.213 118.291 83.2813 117.733C80.364 117.474 77.4797 116.924 74.6715 116.092C74.2486 116.026 73.8608 115.817 73.5724 115.501C73.284 115.184 73.112 114.779 73.0849 114.352C72.3059 109.129 72.3732 103.814 73.2843 98.6126C73.415 97.848 73.5528 97.0857 74.605 96.8459C83.9068 94.6732 93.5778 94.6162 102.905 96.6795C103.04 96.7365 103.165 96.8171 103.273 96.9172Z" fill="#141746"/>
<path d="M146.259 108.73C146.259 106.026 146.204 103.316 146.276 100.612C146.22 99.5454 146.583 98.4994 147.289 97.6975C147.994 96.8957 148.985 96.4016 150.05 96.3206C153.282 95.6986 156.561 95.346 159.852 95.2664C164.68 95.066 169.515 95.4164 174.264 96.3111C175.282 96.389 176.231 96.8523 176.919 97.6065C177.607 98.3607 177.981 99.3489 177.964 100.369C178.506 105.786 177.945 111.196 178.143 116.603C178.211 118.422 176.941 117.828 176.048 117.89C175.119 117.956 174.183 118.151 174.207 116.579C174.266 112.848 174.19 109.113 174.095 105.382C173.979 100.818 173.456 100.291 169.034 99.7948C163.932 99.2956 158.791 99.3393 153.698 99.9252C151.517 100.144 150.47 101.051 150.513 103.373C150.589 107.47 150.451 111.568 150.427 115.667C150.427 116.911 150.71 118.108 148.644 117.968C146.905 117.854 145.765 117.811 146.01 115.532C146.147 113.266 146.165 110.995 146.062 108.728L146.259 108.73Z" fill="#141746"/>
<path d="M12.5753 108.27C12.5753 105.782 12.4756 103.284 12.611 100.804C12.6918 99.3132 11.9982 98.8737 10.7441 98.7834C8.98695 98.7964 7.23596 98.9913 5.51898 99.3652C3.90152 99.5789 2.16531 100.201 0.768737 98.6956C0.362591 98.2634 -0.110119 97.8311 0.0228874 97.19C0.16777 96.4776 0.830414 96.4612 1.40282 96.352C7.07449 95.1843 12.8794 94.7991 18.6556 95.2073C21.2065 95.4162 23.7742 95.6039 26.2894 96.0551C27.1682 96.2119 29.0089 95.6631 28.7215 97.646C28.526 98.3926 28.0451 99.0327 27.3823 99.4284C26.7196 99.8241 25.928 99.9438 25.1778 99.7618C23.0842 99.0974 20.8866 98.8224 18.6938 98.9498C17.2212 99.0187 16.6843 99.5575 16.7128 101.087C16.8054 106.074 16.6654 111.046 16.7912 116.021C16.8364 117.854 15.8887 117.757 14.6252 117.79C13.2666 117.823 12.4329 117.69 12.5374 115.952C12.6894 113.402 12.5753 110.832 12.5753 108.27Z" fill="#161947"/>
<path d="M399.997 96.8786C399.443 98.0353 398.492 98.9549 397.317 99.4703C396.143 99.9858 394.822 100.063 393.596 99.6878C387.803 98.3698 387.758 98.574 387.758 104.487C387.758 108.22 387.686 111.955 387.791 115.683C387.836 117.21 387.24 117.507 385.891 117.479C384.623 117.452 383.851 117.327 383.874 115.745C383.948 110.841 383.824 105.935 383.936 101.022C383.976 99.277 383.371 98.8352 381.779 99.1083C380.188 99.3814 378.583 99.4739 376.998 99.7446C373.747 100.303 373.391 100.165 371.148 96.8641C380.656 94.8209 390.491 94.8261 399.997 96.8786Z" fill="#F37D21"/>
<path d="M327.382 98.9613C327.399 98.3495 327.184 97.7538 326.78 97.294C326.376 96.8341 325.813 96.5441 325.204 96.482C316.274 94.7512 307.094 94.7674 298.17 96.5296C297.71 96.5757 297.282 96.7879 296.968 97.1267C296.653 97.4655 296.472 97.9077 296.46 98.37C295.71 103.291 295.662 108.294 296.318 113.228C296.531 115.263 297.353 116.135 299.386 116.298C301.419 116.462 303.41 117.011 305.433 117.296C312.108 118.309 318.92 117.93 325.441 116.185C326.007 116.094 326.523 115.809 326.9 115.379C327.278 114.949 327.494 114.401 327.51 113.829C327.792 111.581 327.94 109.318 327.952 107.052C327.954 104.345 327.763 101.641 327.382 98.9613ZM323.544 111.096C323.525 111.524 323.352 111.93 323.055 112.24C322.759 112.549 322.36 112.74 321.933 112.777C315.17 114.065 308.221 114.023 301.474 112.654C300.607 112.504 300.408 111.941 300.322 111.293C299.81 107.966 299.851 104.578 300.443 101.265C300.64 100.253 301.187 99.98 302.084 99.904C305.213 99.6452 308.338 99.3459 310.782 99.1251C314.227 99.2268 317.665 99.5016 321.083 99.9489C322.551 100.17 323.335 100.702 323.515 102.376C323.944 105.266 323.953 108.203 323.539 111.096H323.544Z" fill="#F37D20"/>
<path d="M215.123 98.6764C215.097 98.1063 214.861 97.5661 214.459 97.1606C214.058 96.7552 213.52 96.5136 212.95 96.4823C208.631 95.6695 204.252 95.2198 199.858 95.1382C195.321 95.2535 190.797 95.6853 186.32 96.4302C185.75 96.4541 185.21 96.6939 184.811 97.1009C184.411 97.508 184.181 98.0517 184.168 98.6219C183.536 103.049 183.48 107.54 184.002 111.982C184.415 115.677 184.327 115.741 187.852 116.432C196.23 118.391 204.958 118.297 213.292 116.156C214.325 115.857 215.064 115.52 215.258 114.219C215.95 109.058 215.904 103.825 215.123 98.6764ZM211.56 110.768C211.566 111.273 211.377 111.76 211.034 112.13C210.691 112.5 210.218 112.724 209.715 112.756C206.04 113.435 202.305 113.734 198.568 113.649C195.565 113.568 192.572 113.25 189.619 112.699C188.65 112.53 188.194 112.165 188.059 111.236C187.587 108.042 187.612 104.794 188.132 101.607C188.143 101.14 188.335 100.695 188.669 100.368C189.003 100.041 189.451 99.8579 189.918 99.8568C196.171 99.0091 202.511 99.0259 208.76 99.9066C210.349 100.144 211.149 100.707 211.342 102.443C211.749 105.2 211.822 107.994 211.56 110.768Z" fill="#141746"/>
<path d="M364.842 98.5574C364.753 97.9552 364.469 97.3987 364.033 96.9741C363.597 96.5496 363.033 96.2808 362.428 96.2089C353.558 94.5625 344.453 94.6431 335.613 96.4463C333.894 96.7502 333.644 97.9113 333.578 99.2958C333.307 104.852 333.153 110.412 333.184 115.978C333.184 117.426 333.659 117.792 335.067 117.863C336.967 117.963 337.829 117.429 337.487 115.441C337.402 114.945 337.535 114.411 337.461 113.907C337.24 112.383 337.936 112.026 339.328 112.224C343.471 112.751 347.655 112.873 351.821 112.587C354.327 112.451 356.025 113.021 356.932 115.465C357.804 117.809 359.571 117.899 361.766 117.244L358.714 112.283C360.084 112.029 361.272 111.727 362.476 111.606C363.129 111.6 363.755 111.347 364.229 110.899C364.703 110.451 364.991 109.84 365.034 109.189C365.801 105.678 365.735 102.038 364.842 98.5574ZM361.497 105.81C361.429 106.614 361.051 107.361 360.442 107.893C359.834 108.424 359.043 108.699 358.236 108.659C355.462 108.801 352.7 109.243 350.398 109.115C346.793 109.168 343.189 108.896 339.632 108.303C339.289 108.296 338.951 108.217 338.639 108.072C338.328 107.927 338.05 107.719 337.823 107.462C337.597 107.204 337.426 106.902 337.322 106.574C337.219 106.247 337.184 105.902 337.221 105.56C337.221 105.268 337.186 104.976 337.174 104.682C337.027 100.429 337.551 99.8825 341.817 99.4337C347.284 98.918 352.785 98.8821 358.258 99.3268C359.093 99.288 359.909 99.5811 360.529 100.142C361.148 100.703 361.52 101.487 361.564 102.321C361.764 103.478 361.742 104.662 361.497 105.81Z" fill="#F37D20"/>
<path d="M289.454 98.1132C289.311 97.6272 289.024 97.196 288.631 96.876C288.238 96.556 287.758 96.3623 287.253 96.3203C278.458 94.6878 269.429 94.7926 260.675 96.629C259.207 96.8997 258.837 97.6501 258.697 99.0037C258.093 104.845 258.459 110.704 258.29 116.552C258.257 117.806 258.825 117.904 259.853 117.977C261.677 118.101 262.836 117.78 262.435 115.574C262.319 114.935 262.464 114.256 262.407 113.603C262.319 112.539 262.715 112.131 263.798 112.328C266.669 112.683 269.561 112.834 272.453 112.779C277.389 112.932 282.328 112.627 287.208 111.869C287.745 111.85 288.261 111.656 288.679 111.318C289.096 110.979 289.392 110.513 289.521 109.991C290.753 106.124 290.729 101.966 289.454 98.1132ZM286.493 105.876C286.479 106.276 286.384 106.67 286.214 107.032C286.044 107.395 285.802 107.719 285.503 107.985C285.204 108.252 284.854 108.454 284.474 108.582C284.094 108.709 283.693 108.758 283.293 108.725C280.153 108.856 277.025 109.279 273.959 109.106C270.855 109.16 267.751 109.027 264.663 108.707C263.145 108.59 262.39 107.959 262.421 106.394C262.554 99.5547 261.316 100.072 268.271 99.3243C273.295 98.7989 278.362 98.8236 283.381 99.3979C284.149 99.3906 284.892 99.6712 285.463 100.184C286.035 100.697 286.394 101.405 286.469 102.169C286.697 103.394 286.705 104.648 286.493 105.876Z" fill="#F37D20"/>
</svg>
