<?xml version="1.0" standalone="no"?>
<!DOCTYPE svg PUBLIC "-//W3C//DTD SVG 20010904//EN"
 "http://www.w3.org/TR/2001/REC-SVG-20010904/DTD/svg10.dtd">
<svg version="1.0" xmlns="http://www.w3.org/2000/svg"
 width="1123.000000pt" height="384.000000pt" viewBox="0 0 1123.000000 384.000000"
 preserveAspectRatio="xMidYMid meet">

<g transform="translate(0.000000,384.000000) scale(0.100000,-0.100000)"
fill="#000000" stroke="none">
<path d="M1680 3820 c-558 -77 -1041 -379 -1350 -843 -201 -302 -305 -626
-317 -987 -8 -259 17 -444 93 -675 143 -435 451 -816 849 -1050 345 -203 761
-295 1155 -254 1013 103 1766 965 1727 1974 -11 280 -65 503 -182 750 -264
561 -782 958 -1395 1070 -109 20 -474 29 -580 15z m993 -715 c200 -52 335
-261 298 -461 -17 -96 -47 -151 -120 -225 -99 -99 -138 -111 -368 -118 -144
-5 -185 -9 -196 -21 -12 -13 -119 -236 -296 -613 -47 -99 -56 -123 -48 -129 1
-1 151 -5 334 -8 l332 -5 35 -34 c65 -63 74 -158 21 -227 -49 -64 -51 -64
-488 -64 -363 0 -395 -1 -409 -17 -8 -10 -44 -79 -80 -153 -78 -162 -130 -225
-223 -271 -74 -36 -143 -47 -238 -37 -233 24 -392 245 -347 482 23 125 108
232 230 290 64 30 68 31 252 36 109 3 191 9 197 15 6 6 85 168 176 360 143
303 174 377 163 387 -2 1 -148 5 -325 8 -306 5 -323 6 -350 26 -49 36 -73 82
-73 136 0 68 24 114 75 143 l42 25 384 0 c211 0 394 3 407 7 19 4 40 39 98
158 57 117 85 163 123 201 106 106 252 146 394 109z"/>
<path d="M2478 3000 c-43 -13 -93 -47 -131 -89 -39 -43 -33 -31 -444 -901
-438 -926 -476 -1003 -508 -1028 -59 -47 -155 -50 -218 -8 -107 72 -99 242 14
305 30 17 54 21 127 21 113 0 133 8 156 58 32 71 25 75 -127 70 -115 -4 -140
-8 -189 -30 -148 -68 -214 -230 -157 -384 39 -103 109 -161 226 -185 109 -22
228 22 291 110 23 32 331 673 720 1501 182 387 199 414 265 439 64 24 156 3
198 -45 92 -105 48 -260 -85 -299 -27 -8 -87 -15 -133 -15 -75 0 -84 -2 -98
-23 -8 -13 -17 -37 -21 -54 -6 -28 -4 -31 28 -37 63 -12 259 10 311 34 133 63
200 231 150 375 -25 71 -111 155 -182 178 -56 18 -147 21 -193 7z"/>
<path d="M2527 2769 c-17 -10 -48 -64 -61 -106 -6 -19 -2 -23 28 -29 80 -15
146 20 146 76 0 55 -63 88 -113 59z"/>
<path d="M1270 2505 c-16 -19 -16 -63 -1 -78 7 -7 53 -15 104 -19 117 -8 533
-8 571 1 30 6 66 58 66 93 0 17 -23 18 -364 18 -311 0 -365 -2 -376 -15z"/>
<path d="M1881 1413 c-11 -10 -28 -35 -36 -56 -15 -37 -15 -37 10 -47 36 -14
639 -13 687 1 39 10 54 36 46 75 -7 40 -39 44 -369 44 -287 0 -319 -2 -338
-17z"/>
<path d="M1250 1187 c-58 -29 -58 -103 1 -127 47 -20 73 -6 104 53 37 70 30
87 -32 87 -26 0 -59 -6 -73 -13z"/>
<path d="M8330 2830 c-13 -8 -15 -98 -15 -705 0 -807 -11 -731 109 -720 90 8
94 11 106 56 6 21 15 41 21 44 5 4 27 -11 49 -34 66 -68 90 -76 220 -76 105 0
120 2 174 28 78 36 134 83 180 150 201 291 60 708 -262 776 -114 24 -207 6
-286 -56 -39 -30 -49 -34 -57 -22 -5 8 -9 133 -9 280 0 192 -3 268 -12 277
-15 15 -196 16 -218 2z m515 -701 c59 -15 118 -68 151 -135 64 -132 10 -302
-119 -371 -47 -25 -141 -23 -193 5 -57 29 -119 102 -134 157 -16 57 -9 159 15
205 42 83 132 146 213 149 13 1 43 -4 67 -10z"/>
<path d="M10775 2360 c-68 -14 -148 -48 -187 -80 -81 -67 -111 -194 -67 -290
37 -82 79 -112 227 -164 127 -44 175 -68 202 -103 27 -34 20 -68 -22 -107 -28
-26 -36 -28 -94 -24 -57 3 -69 8 -122 50 -96 74 -88 74 -165 12 -79 -64 -83
-82 -33 -140 63 -74 211 -134 332 -134 76 0 202 36 259 74 28 18 64 52 80 76
29 41 30 48 30 145 0 96 -2 104 -29 143 -38 55 -109 101 -226 146 -52 20 -115
45 -140 54 -84 33 -94 106 -18 137 57 23 114 13 179 -31 58 -38 74 -41 109
-18 39 26 100 87 100 99 0 23 -76 87 -135 114 -98 47 -187 60 -280 41z"/>
<path d="M6363 2346 c-50 -12 -139 -63 -163 -92 -24 -27 -44 -16 -60 34 l-15
47 -96 3 c-93 3 -97 2 -103 -20 -3 -13 -6 -217 -6 -455 0 -379 2 -433 16 -447
21 -22 191 -23 220 -2 18 13 19 32 24 293 3 191 9 285 17 299 18 32 79 82 120
99 77 32 179 7 224 -56 24 -34 24 -37 29 -327 6 -351 -5 -325 142 -320 53 2
100 7 105 11 4 5 8 158 8 340 0 322 -1 334 -23 388 -51 128 -166 208 -308 215
-46 2 -101 -2 -131 -10z"/>
<path d="M7411 2344 c-216 -58 -352 -258 -338 -499 14 -253 183 -436 419 -452
102 -8 156 8 217 63 27 24 52 44 55 44 10 0 7 -107 -5 -137 -14 -38 -56 -80
-104 -106 -32 -17 -58 -21 -130 -22 -83 0 -95 3 -154 33 -34 18 -69 31 -76 28
-26 -10 -105 -121 -105 -147 0 -44 80 -102 178 -128 258 -70 519 21 612 214
49 102 51 119 50 619 0 258 -3 473 -6 477 -3 5 -45 9 -94 9 l-88 0 -17 -50
c-9 -27 -22 -50 -28 -50 -6 0 -37 21 -70 46 -92 73 -193 91 -316 58z m222
-218 c60 -22 103 -62 133 -122 23 -47 28 -70 27 -133 0 -88 -18 -139 -66 -189
-55 -58 -99 -74 -188 -70 -67 3 -83 7 -120 33 -24 17 -57 52 -73 78 -25 41
-30 61 -34 131 -4 68 -1 90 17 133 54 123 182 182 304 139z"/>
<path d="M4408 2343 c-42 -7 -49 -24 -46 -114 4 -111 -2 -109 251 -109 155 0
197 -3 197 -13 0 -7 -84 -103 -187 -213 -104 -110 -209 -223 -235 -252 l-48
-51 0 -74 c0 -121 -33 -112 400 -115 451 -3 420 -12 420 116 0 55 -4 92 -12
100 -9 9 -73 12 -225 12 -168 0 -213 3 -213 13 0 7 93 114 206 237 114 124
215 239 225 255 14 22 19 49 19 101 0 117 29 109 -377 110 -191 1 -360 0 -375
-3z"/>
<path d="M5418 2344 c-23 -7 -30 -152 -26 -572 4 -403 -7 -372 125 -372 134 0
123 -41 123 478 0 257 -4 443 -10 452 -7 11 -32 15 -102 17 -51 1 -100 -1
-110 -3z"/>
<path d="M9462 2340 l-23 -10 3 -343 3 -342 33 -67 c61 -125 160 -181 317
-181 105 0 177 23 251 80 25 19 51 32 58 30 7 -3 18 -24 25 -46 9 -30 20 -45
39 -52 35 -14 145 -7 166 10 14 12 16 62 16 455 0 260 -4 447 -10 456 -7 12
-32 15 -115 15 -83 0 -108 -3 -115 -15 -6 -8 -10 -128 -10 -274 0 -241 -1
-263 -20 -300 -26 -51 -68 -85 -134 -108 -112 -39 -193 -9 -237 87 -17 36 -19
69 -19 310 0 152 -4 277 -10 285 -11 18 -181 26 -218 10z"/>
</g>
</svg>
